<?xml version="1.0" encoding="UTF-8" standalone="no"?>
<svg
   xmlns:dc="http://purl.org/dc/elements/1.1/"
   xmlns:cc="http://creativecommons.org/ns#"
   xmlns:rdf="http://www.w3.org/1999/02/22-rdf-syntax-ns#"
   xmlns:svg="http://www.w3.org/2000/svg"
   xmlns="http://www.w3.org/2000/svg"
   xmlns:sodipodi="http://sodipodi.sourceforge.net/DTD/sodipodi-0.dtd"
   xmlns:inkscape="http://www.inkscape.org/namespaces/inkscape"
   width="700"
   height="700"
   viewBox="0 0 700 700"
   version="1.1"
   id="svg4"
   sodipodi:docname="rappi-logo.svg"
   inkscape:version="0.92.4 (5da689c313, 2019-01-14)">
  <path
     d="m 491.99794,325.97039 c -0.70551,3.83092 -1.82021,8.25446 -3.31589,13.12953 -1.50274,4.87508 -3.42877,10.01825 -5.70052,15.23196 -2.46928,5.25604 -5.03027,10.17345 -7.59834,14.60406 -2.53984,4.38826 -5.07967,8.16274 -7.51368,11.2176 -2.37757,2.97725 -4.58582,5.17844 -6.54713,6.54713 -1.48156,1.03004 -2.30701,1.14293 -2.58922,1.14293 -0.13405,0 -0.23988,-0.0212 -0.35275,-0.0705 -0.24693,-0.11284 -1.07238,-0.66318 -1.43219,-3.28063 -0.33865,-2.39873 -0.15521,-5.55235 0.52913,-9.36917 0.70551,-3.92968 1.81316,-8.39556 3.3159,-13.24242 1.48156,-4.84684 3.40762,-9.99001 5.71463,-15.27428 2.28585,-5.24193 4.78335,-10.13111 7.43607,-14.54055 2.63861,-4.40239 5.20667,-8.13454 7.64067,-11.09768 2.36346,-2.89258 4.5717,-5.0585 6.56124,-6.44835 1.48862,-1.03004 2.30702,-1.14293 2.58922,-1.14293 0.1411,0 0.24693,0.0212 0.3457,0.0705 0.24692,0.10579 1.07238,0.66318 1.43924,3.28062 0.3316,2.39874 0.15521,5.50298 -0.52208,9.24218 m -99.03945,0 c -0.70551,3.83092 -1.82022,8.25446 -3.3159,13.12953 -1.50979,4.9033 -3.43584,10.0394 -5.70052,15.23196 -2.47634,5.27016 -5.03734,10.18757 -7.59834,14.60406 -2.54689,4.39532 -5.07967,8.16979 -7.51368,11.2176 -2.37757,2.97725 -4.57876,5.17844 -6.55419,6.54713 -1.48157,1.03004 -2.29996,1.14293 -2.58216,1.14293 -0.13404,0 -0.23987,-0.0212 -0.35276,-0.0705 -0.24692,-0.11284 -1.07237,-0.66318 -1.43218,-3.28063 -0.33864,-2.39168 -0.16227,-5.53825 0.52913,-9.36917 0.69846,-3.92263 1.81316,-8.37439 3.3159,-13.24242 1.48157,-4.8539 3.40761,-9.99001 5.71462,-15.27428 2.29291,-5.25605 4.79748,-10.14523 7.42903,-14.54055 2.65272,-4.40944 5.22078,-8.14159 7.64772,-11.09768 2.37052,-2.89258 4.58582,-5.06555 6.56124,-6.44835 1.48157,-1.03004 2.30703,-1.14293 2.58922,-1.14293 0.1411,0 0.24694,0.0212 0.34571,0.0705 0.24693,0.10579 1.07943,0.66318 1.43924,3.28062 0.33159,2.39874 0.15521,5.50298 -0.52207,9.24218 m -107.30804,-0.98771 c -0.43741,3.89441 -1.28402,8.33912 -2.51867,13.22125 -1.2417,4.86801 -2.93492,9.99001 -5.0444,15.23901 -2.10241,5.22077 -4.33887,10.13112 -6.66,14.58994 -2.27175,4.36005 -4.56467,8.07809 -6.82934,11.05534 -2.20119,2.89259 -4.26835,5.05145 -6.15205,6.41308 -1.38985,1.00888 -2.16591,1.12177 -2.42695,1.12177 -0.11993,0 -0.22576,-0.0212 -0.33865,-0.0705 -0.25398,-0.11284 -1.12881,-0.68434 -1.58033,-3.34411 -0.42331,-2.43401 -0.45859,-5.57353 -0.11994,-9.34095 0.35275,-3.82386 1.14998,-8.21919 2.37757,-13.05898 1.22758,-4.84685 2.92786,-9.97591 5.04439,-15.23902 2.13064,-5.29132 4.37416,-10.19461 6.66707,-14.597 2.25763,-4.35299 4.55759,-8.11335 6.83639,-11.18233 2.18708,-2.96313 4.26127,-5.15021 6.13793,-6.51185 1.38985,-1.00888 2.16591,-1.12176 2.43401,-1.12176 0.11994,0 0.22576,0.0212 0.32454,0.0705 0.26809,0.11284 1.1782,0.70551 1.73555,3.40056 0.49386,2.39873 0.52913,5.54531 0.10578,9.36211 m 216.99365,-32.36173 c 5.18548,0 9.64431,1.5874 13.25652,4.72692 3.48523,3.02664 5.97568,7.35141 7.39375,12.84733 1.37575,5.3266 1.65795,11.7679 0.84661,19.15458 -0.81134,7.29498 -2.94197,15.62 -6.34958,24.74223 -3.21008,8.62133 -6.89284,16.20556 -10.92836,22.53398 -1.95426,3.07602 -3.96495,5.95451 -6.00388,8.61428 -0.26105,0.33865 0.12699,0.78312 0.50091,0.57852 1.18525,-0.64201 2.36346,-1.34047 3.52755,-2.10243 2.65271,-1.71438 5.19961,-3.56281 7.61951,-5.51708 6.75172,-5.46769 11.65502,-12.86144 14.03963,-21.17234 1.42514,-5.00207 3.00547,-9.9618 4.72693,-14.85098 2.82203,-8.04987 5.83456,-15.56355 8.95996,-22.33645 3.10426,-6.75172 5.68641,-11.80317 7.67595,-15.02736 2.25763,-3.66865 5.41832,-5.95449 9.41856,-6.80111 3.7392,-0.79017 7.31614,-0.73372 10.60381,0.15521 3.36528,0.91716 6.11677,2.58217 8.16981,4.96679 2.23646,2.60334 2.72325,5.56648 1.3969,8.57195 -0.39509,1.0371 -1.43218,3.40761 -3.08307,7.05509 -1.65796,3.66866 -3.5205,7.9511 -5.68641,13.11543 -2.08126,4.95973 -4.21895,10.32867 -6.34959,15.94452 -2.08125,5.51709 -3.711,10.66731 -4.8398,15.30957 -1.1006,4.51526 -1.53097,8.26857 -1.28403,11.15411 0.23987,2.75853 1.29107,2.75853 1.86254,2.75853 0.80428,0 2.22941,-0.38097 4.44471,-2.18707 2.13064,-1.76378 4.38122,-3.88737 6.70235,-6.34254 2.32112,-2.46223 4.55053,-5.11494 6.61063,-7.88054 1.8837,-2.51867 3.49932,-4.74808 4.81158,-6.63179 1.14293,-1.64384 2.96314,-2.58217 4.98795,-2.58217 2.13769,0 4.2119,1.07238 5.29133,2.73032 1.0512,1.62267 1.02297,3.55578 -0.0917,5.29133 -1.3969,2.18002 -3.83797,5.83456 -7.46429,11.18938 -3.59105,5.29132 -7.88759,10.74492 -12.76972,16.21967 -4.9668,5.55236 -10.39217,10.48388 -16.14207,14.65344 -6.04622,4.39533 -12.15593,6.61769 -18.14571,6.61769 -5.41831,0 -9.46088,-1.87666 -12.02188,-5.58764 -2.3282,-3.38646 -3.51345,-7.92994 -3.51345,-13.50346 v -0.88894 c 0.0141,-0.66319 -0.76194,-1.0371 -1.27697,-0.62086 -1.13587,0.91011 -2.30702,1.81316 -3.49932,2.7021 -7.04099,5.24195 -15.16846,9.68666 -24.17079,13.22126 -8.03575,3.16069 -16.8899,4.76219 -26.3155,4.76219 l -1.91899,-0.0212 -1.92604,-0.0635 c -6.42013,-0.0141 -11.18233,-2.02482 -14.16663,-5.99683 -0.52914,-0.69846 -1.01594,-1.41808 -1.44631,-2.15886 -0.34568,-0.59264 -1.24169,-0.49386 -1.43923,0.16932 -0.96654,3.22417 -1.88371,6.33548 -2.73032,9.31272 -1.83433,6.39898 -3.40056,11.93723 -4.77631,16.93223 -1.38279,5.00913 -2.58217,9.57377 -3.56988,13.58813 -0.95243,3.86619 -1.61561,6.99865 -1.95426,9.31978 l -0.0212,0.0846 c -0.86778,4.39532 -3.83797,5.94039 -6.18731,6.46952 -1.04415,0.23281 -2.13065,0.35275 -3.23124,0.35275 -1.98953,0 -4.09196,-0.38803 -6.24375,-1.14292 -3.27358,-1.15703 -6.21555,-3.15362 -8.75538,-5.94039 -2.63155,-2.89259 -3.96497,-6.51185 -3.96497,-10.75902 0,-0.86073 0.21871,-2.74444 1.90488,-9.67961 1.26286,-5.11493 2.96314,-11.47863 5.07261,-18.92176 1.42513,-5.0444 3.04781,-10.53327 4.84685,-16.40311 0.21165,-0.70551 -0.59263,-1.29108 -1.19937,-0.87483 -6.27198,4.26834 -13.3059,7.95815 -20.98185,10.97068 -8.04282,3.16069 -16.8899,4.76219 -26.31552,4.76219 -1.26992,0 -2.56805,-0.0282 -3.85208,-0.0846 -6.41309,-0.0141 -11.17528,-2.02483 -14.16664,-5.99684 -0.52913,-0.69845 -1.00887,-1.41102 -1.43923,-2.15886 -0.35276,-0.59263 -1.2417,-0.4868 -1.43925,0.16933 -0.9736,3.23122 -1.89076,6.34958 -2.73737,9.31272 -1.84139,6.42014 -3.40761,11.96545 -4.76925,16.93223 -1.3828,5.00913 -2.58923,9.57377 -3.57694,13.58813 -0.95243,3.87324 -1.60856,7.0057 -1.95426,9.31978 l -0.0141,0.0846 c -0.86778,4.39532 -3.84503,5.94039 -6.19439,6.46952 -1.04415,0.23281 -2.12358,0.35275 -3.22419,0.35275 -1.98953,0 -4.09195,-0.38803 -6.25081,-1.14292 -3.27356,-1.15704 -6.20849,-3.15363 -8.74832,-5.94039 -2.63155,-2.8926 -3.96497,-6.51186 -3.96497,-10.75902 0,-0.86778 0.21166,-2.7515 1.90488,-9.67961 1.26993,-5.16433 2.9702,-11.52803 5.06556,-18.92176 1.2417,-4.39532 2.61744,-9.07991 4.16251,-14.13843 0.22576,-0.76194 -0.70551,-1.34045 -1.29813,-0.79721 -2.63156,2.39873 -5.34072,4.63519 -8.12043,6.68117 -5.96156,4.39532 -12.02894,6.62474 -18.02578,6.62474 -5.4183,0 -9.46793,-1.87666 -12.02186,-5.58764 -1.03006,-1.49569 -1.83434,-3.22418 -2.41992,-5.16433 -0.51501,-1.7285 -2.73032,-2.25763 -3.98612,-0.95244 -1.76378,1.83433 -3.70393,3.50638 -5.78519,4.9809 -2.70915,1.91899 -5.73579,3.52755 -9.00935,4.78336 -3.37234,1.28402 -7.01983,1.94015 -10.84369,1.94015 -5.17138,0 -9.70781,-1.57329 -13.47523,-4.68458 -3.66866,-3.00548 -6.38486,-7.26676 -8.08515,-12.67802 -1.65089,-5.24193 -2.25763,-11.68324 -1.8061,-19.15459 0.45152,-7.37963 2.13064,-15.66232 4.99501,-24.62935 6.10266,-18.59724 14.0608,-32.40405 23.66279,-41.06066 9.77837,-8.81888 19.69783,-13.2918 29.48326,-13.2918 4.14134,0 7.64772,0.83249 10.40627,2.46928 2.71621,1.62267 4.81157,3.76743 6.22964,6.37781 0.94538,1.75671 1.63679,3.64043 2.0601,5.64408 0.0776,0.35275 0.55735,0.4233 0.73372,0.10579 0.49386,-0.88895 0.96655,-1.68617 1.41102,-2.41285 2.25763,-3.65453 5.37599,-5.94039 9.27745,-6.79406 3.6475,-0.79017 7.21738,-0.74079 10.59677,0.14816 3.46405,0.91716 6.26492,2.58923 8.32501,4.97384 2.23646,2.60334 2.72327,5.56648 1.38985,8.57195 -0.38801,1.02299 -1.38985,3.33706 -3.07602,7.0551 -1.64384,3.64043 -3.56283,8.04986 -5.68641,13.11542 -2.10241,5.01618 -4.24012,10.3851 -6.34958,15.94452 -2.08831,5.51709 -3.71805,10.67436 -4.8398,15.30957 -1.1006,4.52231 -1.53096,8.27562 -1.28403,11.15411 0.23987,2.75853 1.29108,2.75853 1.85549,2.75853 0.81133,0 2.23646,-0.38097 4.44471,-2.18707 1.22053,-1.00888 2.49045,-2.14475 3.78858,-3.3935 5.0303,-4.84686 8.40263,-10.13818 10.6532,-16.72058 2.99136,-8.73421 6.13795,-17.35554 9.36917,-25.66645 3.44995,-8.84004 6.81523,-16.77703 10.00413,-23.59225 1.66501,-3.52755 4.30361,-5.90511 7.81705,-7.04804 3.29473,-1.07238 6.67412,-1.29814 9.99708,-0.67024 3.31589,0.63497 6.2226,1.95427 8.63543,3.9297 1.07238,0.87483 1.92604,1.82021 2.561,2.81498 0.16933,0.26809 0.36687,0.29631 0.59969,0.0776 2.85025,-2.63157 5.99683,-5.0444 9.39034,-7.19621 4.96678,-3.16774 10.5897,-4.76924 16.71351,-4.76924 5.17845,0 9.64433,1.5874 13.24949,4.72691 3.49226,3.03369 5.98271,7.35141 7.40079,12.84733 1.37574,5.31955 1.65794,11.7679 0.84661,19.15459 -0.81134,7.28792 -2.94903,15.61999 -6.34958,24.74222 -3.21714,8.62839 -6.89989,16.21263 -10.93541,22.53399 -1.95426,3.07602 -3.96496,5.95451 -6.00389,8.61428 -0.26103,0.33864 0.13405,0.78311 0.50797,0.57852 1.1782,-0.64202 2.3564,-1.34048 3.52755,-2.10243 1.89782,-1.22758 3.7392,-2.52571 5.51709,-3.8803 6.75878,-5.13611 11.80318,-12.16299 14.49117,-20.16347 l 1.05826,-3.12541 c 3.17479,-9.38327 6.53302,-18.62545 9.97591,-27.47255 3.457,-8.85415 6.82228,-16.79113 10.01118,-23.59224 1.65795,-3.52756 4.2895,-5.89807 7.81705,-7.04805 3.29473,-1.07237 6.67412,-1.29814 9.99708,-0.67023 3.31589,0.63496 6.21553,1.95426 8.62838,3.92264 1.07238,0.88189 1.92604,1.82727 2.561,2.82203 0.16932,0.2681 0.36687,0.29632 0.59969,0.0776 2.85025,-2.63156 5.99682,-5.0444 9.39033,-7.19621 4.97384,-3.16773 10.59676,-4.76924 16.71352,-4.76924 z M 178.14488,248.6818 c 7.43606,0 14.88624,0.86071 22.153,2.54688 7.31613,1.70734 13.95498,4.30362 19.719,7.71828 5.83456,3.457 10.62497,7.79588 14.23719,12.89672 3.68276,5.19255 5.5453,11.28111 5.5453,18.09633 0,7.33729 -1.63678,14.22307 -4.86801,20.45978 -3.20302,6.17321 -7.61245,11.81023 -13.09427,16.75585 -5.43242,4.91036 -11.87373,9.24218 -19.14753,12.8685 -5.99684,2.99137 -12.36759,5.5453 -18.98527,7.59834 -0.42331,0.13405 -0.57146,0.35276 -0.5503,0.77606 0.14111,3.24535 0.37392,6.45542 0.70551,9.54556 0.37392,3.54871 0.86778,7.0057 1.47452,10.28633 0.59263,3.22417 1.31225,6.3637 2.12358,9.33389 0.63496,2.29996 1.34047,4.53642 2.09536,6.66 0.47976,1.35459 0.98772,2.68095 1.50274,3.92265 1.03711,2.50455 2.18003,4.90328 3.39351,7.12564 1.19231,2.18708 2.48339,4.26129 3.83796,6.16616 1.31932,1.85549 2.73739,3.5981 4.2119,5.19255 1.43924,1.55212 2.96314,2.97726 4.52938,4.24716 1.52389,1.23465 3.13246,2.35641 4.7763,3.31591 1.6015,0.94538 3.28062,1.76377 4.99501,2.44106 1.68616,0.66318 3.42878,1.19937 5.18549,1.58739 1.76378,0.38804 3.57694,0.63496 5.41126,0.7549 1.82727,0.11285 3.73215,0.0917 5.62997,-0.0776 1.9331,-0.16933 3.90852,-0.47975 5.86983,-0.93833 2.01071,-0.46563 4.05669,-1.07943 6.09561,-1.83432 2.08831,-0.77606 4.19779,-1.72145 6.27905,-2.78677 0.79721,-0.4092 1.6015,-0.84661 2.39873,-1.29813 2.59627,-1.48157 5.91216,-0.77606 7.65478,1.62267 1.74966,2.39873 1.36162,5.71462 -0.89601,7.66183 -1.10764,0.95245 -2.22235,1.88371 -3.32294,2.77266 -2.67389,2.15886 -5.35482,4.1625 -7.97227,5.94744 -2.48339,1.69322 -5.00911,3.27357 -7.50662,4.67754 -1.24874,0.70551 -2.56099,1.3969 -3.89441,2.06008 -2.56099,1.28403 -5.15022,2.41284 -7.71122,3.35823 -2.54689,0.93832 -5.10789,1.72145 -7.6054,2.31407 -2.49043,0.59263 -5.00206,1.02299 -7.45019,1.26992 -1.74966,0.17637 -3.49931,0.26809 -5.20664,0.26809 -0.69141,0 -1.38281,-0.0141 -2.07421,-0.0494 -2.3705,-0.0987 -4.72691,-0.37391 -7.01277,-0.81838 -1.1288,-0.21871 -2.27174,-0.4868 -3.38643,-0.79723 -1.07944,-0.28926 -2.18709,-0.63495 -3.29474,-1.03709 -2.12358,-0.76196 -4.23306,-1.70029 -6.25082,-2.79382 -1.97543,-1.07238 -3.92263,-2.30703 -5.77108,-3.67571 -1.49566,-1.10765 -2.96314,-2.32818 -4.35299,-3.61927 -1.67205,-1.55212 -3.30179,-3.28062 -4.84684,-5.11494 -1.5239,-1.81316 -2.9843,-3.77448 -4.33888,-5.82751 -1.36164,-2.04598 -2.64567,-4.23306 -3.83092,-6.49069 -1.1782,-2.25764 -2.29996,-4.65637 -3.31591,-7.12565 -1.00886,-2.44812 -1.94719,-5.0444 -2.80087,-7.73239 -0.83956,-2.6386 -1.60855,-5.43242 -2.28584,-8.3109 -0.67024,-2.87143 -1.25582,-5.84868 -1.74262,-8.85415 -0.43742,-2.65977 -0.80428,-5.41832 -1.09354,-8.21919 -0.0846,-0.84661 -1.30519,-0.95949 -1.55213,-0.13405 -1.05825,3.65454 -2.01776,7.19621 -2.86437,10.58265 -1.06531,4.24717 -2.04597,8.11336 -2.93492,11.58447 -0.86778,3.40056 -1.48157,6.13794 -1.83432,8.13453 -0.70551,3.54165 -3.05485,5.77813 -6.82229,6.5048 -3.23828,0.63496 -6.71644,0.36686 -10.30043,-0.77606 -3.54166,-1.13588 -6.75879,-3.10425 -9.57377,-5.86279 -2.94902,-2.89259 -4.4447,-6.52596 -4.4447,-10.80841 0,-3.48522 0.88894,-8.99524 2.70915,-16.83346 1.77789,-7.65478 4.33888,-16.72763 7.62656,-26.9787 3.25946,-10.16639 7.21736,-21.37694 11.7538,-33.30006 3.89441,-10.244 8.26858,-20.55855 13.0096,-30.732 1.55212,-3.33 4.76219,-5.62291 8.46611,-6.04622 8.37441,-0.95949 15.64116,-0.71962 21.80025,0.70551 3.71098,0.86073 5.70052,4.83274 4.1484,8.25446 -3.97201,8.73421 -7.63361,17.44726 -10.90717,25.92748 -2.64567,6.86462 -5.1855,13.65868 -7.58423,20.26931 -0.23282,0.65612 0.44447,1.26285 1.07943,0.9736 3.19596,-1.44629 6.34958,-3.15363 9.43266,-5.10084 5.05145,-3.19596 9.65137,-7.01277 13.67984,-11.33754 4.00728,-4.32477 7.29496,-9.19985 9.7713,-14.49822 2.44107,-5.249 3.68277,-10.94951 3.68277,-16.96047 0,-7.72532 -2.17298,-13.43289 -6.45542,-16.95339 -4.33889,-3.56282 -10.4486,-5.37598 -18.16688,-5.37598 -8.21919,0 -15.73287,1.91898 -22.32938,5.70757 -6.77289,3.8803 -12.62862,8.64955 -17.40493,14.18075 -4.81158,5.57352 -8.60721,11.52802 -11.26699,17.70123 -2.6386,6.11678 -3.97907,11.47865 -3.97907,15.94452 0,3.19596 -1.71439,5.50299 -4.82568,6.49775 -2.73033,0.87483 -5.74286,0.74784 -8.83299,-0.38802 -2.9702,-1.08656 -5.72168,-3.23835 -8.18391,-6.38493 -2.476355,-3.16069 -3.732155,-7.44313 -3.732155,-12.7274 0,-4.61403 1.77789,-10.04646 5.432425,-16.60769 3.55578,-6.39898 8.81888,-12.62863 15.62705,-18.51964 6.80111,-5.87689 15.38011,-10.97774 25.52534,-15.15434 10.20167,-4.20484 21.99074,-6.33548 35.03562,-6.33548 z m 404.72978,-4.88213 c 11.37988,0 20.60088,9.10108 20.60088,20.31868 0,11.2176 -9.221,20.31867 -20.60088,20.31867 -11.37988,0 -20.60088,-9.10107 -20.60088,-20.31867 0,-11.2176 9.221,-20.31868 20.60088,-20.31868 z"
     id="path2"
     inkscape:connector-curvature="0"
     style="fill:#ff441f;fill-rule:evenodd;stroke-width:7.05509758" />
</svg>
